<?xml version="1.0" standalone="no"?>
<!DOCTYPE svg PUBLIC "-//W3C//DTD SVG 20010904//EN"
 "http://www.w3.org/TR/2001/REC-SVG-20010904/DTD/svg10.dtd">
<svg version="1.0" xmlns="http://www.w3.org/2000/svg"
 width="237.000000pt" height="212.000000pt" viewBox="0 0 237.000000 212.000000"
 preserveAspectRatio="xMidYMid meet">

<g transform="translate(0.000000,212.000000) scale(0.100000,-0.100000)"
fill="#000000" stroke="none">
<path d="M1625 2110 c-141 -19 -233 -68 -360 -191 l-90 -87 -95 85 c-163 145
-308 200 -505 190 -118 -6 -204 -30 -293 -84 -218 -133 -314 -356 -268 -621
48 -274 216 -513 631 -895 66 -61 211 -198 322 -304 110 -106 205 -193 210
-193 4 0 51 43 103 95 l94 95 -44 45 -44 45 -56 -55 -55 -55 -166 158 c-91 86
-235 221 -320 300 -393 360 -559 624 -559 888 0 186 84 323 249 405 74 37 137
50 241 50 165 0 260 -48 446 -224 l110 -105 120 121 c92 94 135 130 189 159
170 89 362 74 530 -40 81 -55 162 -155 195 -241 29 -74 37 -206 16 -281 l-14
-55 46 -41 c26 -23 50 -40 54 -37 13 7 45 127 52 193 8 74 -6 177 -34 258 -97
276 -409 462 -705 422z"/>
<path d="M1692 1240 c-99 -26 -165 -63 -238 -135 -115 -113 -171 -281 -146
-442 44 -277 304 -474 577 -435 260 38 447 254 446 515 0 140 -50 261 -148
360 -70 71 -143 113 -237 137 -97 25 -159 25 -254 0z m182 -230 c16 -16 21
-37 24 -109 l4 -89 88 -4 c105 -4 130 -19 130 -79 0 -61 -32 -79 -141 -79
l-89 0 0 -93 c0 -77 -3 -97 -17 -109 -27 -24 -60 -30 -85 -17 -41 22 -47 40
-48 132 l0 87 -80 0 c-96 0 -135 16 -145 59 -3 17 -1 39 4 50 22 40 51 51 138
51 l83 0 0 88 c1 53 5 93 13 103 33 42 84 46 121 9z"/>
</g>
</svg>
